<svg xmlns="http://www.w3.org/2000/svg" viewBox="0 0 288.87 134.47"><defs><style>.cls-1,.cls-2{fill:#fff;}.cls-1{fill-rule:evenodd;}</style></defs><title>Ресурс 1</title><g id="Слой_2" data-name="Слой 2"><g id="Слой_1-2" data-name="Слой 1"><path class="cls-1" d="M18.68,4.48A4.42,4.42,0,0,0,14.27.07H4.41A4.42,4.42,0,0,0,0,4.48V72.24a4.42,4.42,0,0,0,4.41,4.41c14.34,0,28.57,0,43,0V70.27c0-5.48-2.23-11.65-11.57-11.65-5.65,0-11.56.16-17.18,0Z"/><path class="cls-1" d="M256.88,32.45c3.43-8.32,7.42-17.53,10.85-25.85,2.75-6.68,5-6.6,12.54-6.6h8.6L275.15,33.87l13,42.71-8.84.06c-9.74.06-10.64-.64-13.21-9.53l-9.23-31.77V76.61c-4.76,0-7.8,0-12.55,0-5.34,0-6.13-2-6.13-6.13v-66A4.42,4.42,0,0,1,242.61,0h9.86a4.42,4.42,0,0,1,4.41,4.41Z"/><path class="cls-1" d="M88.54,57.12a21,21,0,0,0,10-12.45,20.15,20.15,0,0,0,.88-5.33c0-.52,0-1,0-1.57s0-1-.1-1.53a21,21,0,0,0-2.54-8A21.24,21.24,0,0,0,91.57,22a21.57,21.57,0,0,0-7.22-3.81,21,21,0,0,0-12.43.07c-6,1.93-10.14,3-16.27-.79a17.28,17.28,0,0,1-5.26-5.13,38.58,38.58,0,0,1,8.76-7,38.2,38.2,0,0,1,38.23,0,38.65,38.65,0,0,1,9.14,7.36A37.92,37.92,0,0,1,113,22.59a38.46,38.46,0,0,1,3.24,11.81,23.52,23.52,0,0,1,.19,2.71l0,1.39c0,.29,0,.6,0,.91a22.31,22.31,0,0,0,.67,4.59,20.06,20.06,0,0,0,2,4.86,21.57,21.57,0,0,0,5.26,6.24,21,21,0,0,0,7.22,3.79,21.39,21.39,0,0,0,16.46-1.77,21,21,0,0,0,10-12.45A20.06,20.06,0,0,0,159,39.9c0-.9,0-1.79,0-2.69,0-.32-.05-.64-.08-1a21,21,0,0,0-2.54-8A21.36,21.36,0,0,0,151.12,22a21.76,21.76,0,0,0-7.22-3.81,21,21,0,0,0-12.44.07c-6,1.93-10.14,3-16.27-.79a17.14,17.14,0,0,1-5.25-5.13,38.53,38.53,0,0,1,8.75-7,38.2,38.2,0,0,1,38.23,0,38.18,38.18,0,0,1,18.89,29.06,40.08,40.08,0,0,1,.21,5.11,22,22,0,0,0,.66,4.47,19.85,19.85,0,0,0,2,4.86c9.07,16.19,33.51,14.08,39-4.19a21.37,21.37,0,0,0-7-22.71,21.76,21.76,0,0,0-7.22-3.81,21,21,0,0,0-12.43.07c-6,1.93-10.14,3-16.28-.79a17.14,17.14,0,0,1-5.25-5.13,38.36,38.36,0,0,1,8.76-7,37.84,37.84,0,0,1,10.53-4.14,38.29,38.29,0,1,1-19.81,63.12c-.49-.54-1-1.1-1.43-1.66a40,40,0,0,1-4,4.19,38.33,38.33,0,0,1-54.12-2.53c-.5-.55-1-1.11-1.45-1.69A38.37,38.37,0,0,1,70.05,75.94,38.28,38.28,0,0,1,44,21.21a17.23,17.23,0,0,1,6.62,3.18,16.69,16.69,0,0,1,4.72,5.87c1.74,3.61,1.46,5.54,1.59,9.15A21.65,21.65,0,0,0,57.64,44a19.67,19.67,0,0,0,2,4.86,21.54,21.54,0,0,0,5.25,6.24,21.34,21.34,0,0,0,23.68,2Z"/><path class="cls-1" d="M78.06,113.13a7.18,7.18,0,0,1-5.53,2.47c-6.23-.32-6.19-7.48-6.14-12.12,0-3.45,2.36-14.41,7-14.12,3.7.23,3.31,5.67,3,8.17-.61,4.13-3.13,10.61-5.89,14a3.36,3.36,0,0,0,2.67,1.52c2.18,0,3.88-2.1,5-3.79.3-1.39,1-3.9,2.5-4.48a2.69,2.69,0,0,1,2.52-1.89,3,3,0,0,1,2.5,1.42,7.18,7.18,0,0,1,.94,4.62,3.44,3.44,0,0,1,0,.46,2.77,2.77,0,0,0,2.7-.57,17.7,17.7,0,0,1,.07-2.42c0-1.81,3.31-1.82,2.87.27a6.48,6.48,0,0,0-.06.77,2.49,2.49,0,0,1,0,.86c0,.8.12,4.69.83,4.8.54-.11,1.37-2.39,1.63-3.18a7.72,7.72,0,0,1-.1-3.76c.14-.83.81-3.35,1.94-3.22,1.66.08,1.54,2.36,1.5,3.53a13.44,13.44,0,0,1-.54,3.08,4.36,4.36,0,0,0,2.07.16,4.46,4.46,0,0,1,0-.73c.1-2.48,2.49-8.1,5.73-6.4,3.56,1.87.58,7.81-2.76,9a1.86,1.86,0,0,0,2,1.16c3,0,4.75-3.65,6-5.8.78-1.4,2.45,0,1,2.72-1.26,2.52-3.64,5.92-6.82,5.87-2.45,0-4.14-1.09-4.84-3.31a8.09,8.09,0,0,1-3.28-.34,10,10,0,0,1-.77,1.44c-.75,1.12-1.48,2.58-3,2.58-2.14,0-2.93-2.48-3.24-4.39a5.82,5.82,0,0,1-3.55.45c-.78,2.11-2.33,4-4.8,3.8a3.34,3.34,0,0,1-3-2.65Zm44.18-5.45c.17-1.22.88-4.49,2.72-3.88,1.18.39,1.22,1.77.87,2.73-.5,1.88-1.56,5.14-1.61,7a6,6,0,0,1,0,.73,2.24,2.24,0,0,1,1,.59c.72.63,0,1.34-.64,1.61-.24.14-.45.27-.67.42a3.29,3.29,0,0,0,0,.54v.07c-.2,1.68-.1,3.42-.18,5.12-.16,3.35-1.13,10.22-5.68,10-2.6-.09-4-2.89-3.66-5.22a18.06,18.06,0,0,1,7.36-12c.05-.68.1-1.36.16-2a3.8,3.8,0,0,1-3,1.85c-2.61-.08-3.27-2.84-3.06-5,.1-1,.72-6,2.65-5.21a1.59,1.59,0,0,1,.72,2.17,16.73,16.73,0,0,0-.68,3.74,6.72,6.72,0,0,0,.21,2c1.55-.15,3.1-3.91,3.62-5.26ZM134,109.43a3.44,3.44,0,0,0,0-.46,7.25,7.25,0,0,0-.95-4.62,3,3,0,0,0-2.5-1.42,2.7,2.7,0,0,0-2.52,1.89c-1.75.71-2.59,4.33-2.72,5.92-.18,2.14.72,4.89,3.23,5s4-1.69,4.81-3.8a5.79,5.79,0,0,0,3.56-.46c.32,1.5,1.2,3,2.85,3.19s2.72-1.06,3.46-2.39a4,4,0,0,0,3.71,2.48c2.59,0,4.82-3,6-5,.4-.72.94-1.51,1.29-2.25.21,0,.6.09.8.09a1.07,1.07,0,0,0,.45-.08l-.08.27a7.32,7.32,0,0,0-.17,2.19c0,2.64,1.27,5,4.22,5.2s5.08-3.12,6.4-5.42c1.41-2.81-.41-4.08-1.11-2.69s-3,5.46-5,5.46c-1.65,0-1.54-1.89-1.51-3.08,0-1.6.6-1.84.7-3,.06-.82.12-1.75-.7-2.21a2.41,2.41,0,0,0-2.6.14,1.37,1.37,0,0,0,.12-.51,2,2,0,0,0-1.54-2.09c-1.57-.18-1.9,2.52-1.9,3.64,0,.23,0,.55,0,.78l0,0c-.15.24-.29.47-.41.71l-.08.12c-1,1.9-2.62,5.53-5.3,5.24-1-.11-1.1-1.59-1.1-2.34a30.35,30.35,0,0,1,.17-3.18c.25-1,.71-1.73-.77-2.14-1-.25-1.63.42-1.85,1.34-.18.73-.33,1.47-.51,2.2s-1.46,3.89-2.25,3.79c-1.22-.15-.13-4.71.08-5.42.27-.91,1-2.21-.47-2.61a1.38,1.38,0,0,0-1.95,1.11,32,32,0,0,0-.91,3.46,2.75,2.75,0,0,1-3,.88ZM69.3,109.1c2.28-3.56,3-6.41,4.13-10.81.18-.7.92-6-.21-6.1-.85-.06-2.1,2.61-2.35,3.21a29.12,29.12,0,0,0-2,8.22,21.51,21.51,0,0,0,.4,5.48Zm14.15,2a7,7,0,0,1-2.25-2.45,8.57,8.57,0,0,0-.7,2.28c0,.78-.06,2.31,1,2.37.83.07,1.57-1.31,1.91-2.2Zm.38-3.13c0-1-.17-2.4-.57-2.36s-.2,1-.11,1.25a2.81,2.81,0,0,0,.68,1.11Zm18.6.62a4.74,4.74,0,0,0,1.25-1.49c.19-.3.94-2.13.41-2.25-.71.26-1.37,2.33-1.66,3.74Zm19,10c-2.43,2.11-4.37,4.91-4.48,8.24,0,.8-.28,3,1,3,2.06,0,2.44-3.49,2.78-4.92a36.06,36.06,0,0,0,.7-6.3ZM131.33,108a2.93,2.93,0,0,1-.68-1.11c-.09-.26-.25-1.23.11-1.25s.53,1.31.57,2.36Zm-.37,3.13c-.34.89-1.09,2.27-1.92,2.2-1.1-.06-1.07-1.59-1-2.37a8.57,8.57,0,0,1,.7-2.28A6.86,6.86,0,0,0,131,111.12Z"/><path class="cls-1" d="M198,111c.72-1.68,1.7-4.56,2.07-5.48.63-1.58,2.43-1.24,3.39-.17s-1.63,7.35,1.46,7.55c1.9.12,3.72-2.68,4.6-4.18.1-.7.22-1.41.34-2.1v-.06l0,0c.54-1.39,2.85-1.18,2.85.29a10.89,10.89,0,0,1-.22,1.2,12.49,12.49,0,0,0-.21,2.12c0,1.21.15,2.85,1.72,2.78a3.81,3.81,0,0,0,2.24-1.28c-.93-2.45-.92-5.61-.89-8.19,0-3.44,2.36-14.41,7-14.12,3.7.24,3.31,5.67,2.95,8.17A34.22,34.22,0,0,1,220,110.74q-.26.44-.54.84a3.34,3.34,0,0,0,2.64,1.48,4,4,0,0,0,2.2-.72,9.22,9.22,0,0,1-.41-3.34c.09-2.47,2.5-8.35,5.77-6.33,2.23,1.47,1.15,3.91.4,5.85a15.67,15.67,0,0,1-2.41,4,3.13,3.13,0,0,0,1.14.23c3,0,4.83-3.64,6.12-5.8.79-1.4,2.46,0,1,2.72-1.26,2.52-3.64,5.93-6.82,5.87a5.32,5.32,0,0,1-3.48-1.16,6.55,6.55,0,0,1-4.07,1.21,5.49,5.49,0,0,1-4-1.75,5.57,5.57,0,0,1-3.69,1.75,4.15,4.15,0,0,1-4.06-3c-1.28,1.67-3.05,3.19-5.22,3.13a3.56,3.56,0,0,1-2.68-1.16,5.6,5.6,0,0,1-1.13-3.3c0-.18,0-.35,0-.53l-.2.59c-.5,1.29-1.58,3.92-3.28,3.89-2.54-.1-1.66-4.06-1.67-5.85-.41.92-1,2.42-1.17,2.82-.54,1.2-1.7,3.73-3.32,3.59-2.6-.24-1.55-4.48-1.46-6.51-.11.19-.2.37-.25.46l0,.06,0,0c-.79.91-2.27-.42-1.56-1.84.33-.6.69-1.18,1.05-1.76,1-1.64,2.55-.75,3.1.81a8,8,0,0,1,.15,2.8c0,.28-.11,1.14-.15,1.84.84-1.49,2.07-4.74,2.5-5.62,1.07-1.91,3.7-1.13,3.75,1.35,0,.66-.16,2.42-.18,3.68Zm11.48-8.11a1.73,1.73,0,0,0,1.5,1.93,1.77,1.77,0,0,0,2-1.49c.16-1.11-.17-2.23-1.45-2.41a2,2,0,0,0-2.08,2Zm10.25,3.69a44.31,44.31,0,0,0,2.68-8.34c.19-.7.92-6-.21-6.09-.84-.07-2.09,2.61-2.34,3.2a29.2,29.2,0,0,0-2,8.22,21.37,21.37,0,0,0,.39,5.41c.42-.67.81-1.36,1.19-2.06a1.1,1.1,0,0,1,.26-.34ZM228.3,105c-.65.47-1.4,2.91-1.53,3.56a9.4,9.4,0,0,0-.19,1.34c.19-.26.36-.53.53-.8a14.62,14.62,0,0,0,.61-1.57,7.08,7.08,0,0,0,.58-2.53Zm-53.25,8.6-.32-.22a3.13,3.13,0,0,0-.3-.2l-.25-.17a.66.66,0,0,0-.39-.11,1.11,1.11,0,0,0-.25,0c-.41.13-.51.67-.66,1a1,1,0,0,0-.12.42,1,1,0,0,0,.35.73,2.36,2.36,0,0,0,.79.44,18.55,18.55,0,0,0,4,1.06c.72.13,1.46.22,2.2.3a14.57,14.57,0,0,0,2.29.06,8.48,8.48,0,0,0,2.06-.36,10.34,10.34,0,0,0,1.52-.58,3.2,3.2,0,0,0,1.45-1.39,3.49,3.49,0,0,0,.36-1.45,2.45,2.45,0,0,0-.51-1.5,5.23,5.23,0,0,0-1.18-1.12,7.22,7.22,0,0,0-1.53-.81q-.75-.3-1.53-.54a17.72,17.72,0,0,0-1.77-.47c-.43-.08-.86-.17-1.28-.29a4.73,4.73,0,0,1-1.07-.44,5.66,5.66,0,0,1-1.16-.92,1.16,1.16,0,0,1-.33-.51,2.15,2.15,0,0,1-.13-.61,3.51,3.51,0,0,1,0-.56,2.7,2.7,0,0,1,.08-.41,4.69,4.69,0,0,1,.33-1,3,3,0,0,1,.48-.68,4.7,4.7,0,0,1,.88-.79,8.53,8.53,0,0,1,.85-.44,2,2,0,0,1,.76-.17,4.34,4.34,0,0,1,.88.06,3,3,0,0,1,.78.22,1.89,1.89,0,0,1,.5.28,6.17,6.17,0,0,1,.48.54,1.16,1.16,0,0,1,.25.58c0,.23,0,.46.08.68s0,.19.05.28,0,.14,0,.2v.55a1.4,1.4,0,0,0,.29.93,1.87,1.87,0,0,0,.4.27,1.47,1.47,0,0,0,.71.15,1.69,1.69,0,0,0,.54-.12,1.15,1.15,0,0,0,.58-.57,2.66,2.66,0,0,0,.23-1.25c0-.11,0-.26,0-.37a.43.43,0,0,0,0-.12.68.68,0,0,0,0-.14c0-.15,0-.32,0-.47a3.54,3.54,0,0,0-.45-1.41,4.34,4.34,0,0,0-1.25-1.31,6.35,6.35,0,0,0-2-1,8,8,0,0,0-2.18-.29,5.22,5.22,0,0,0-1.88.39,6.94,6.94,0,0,0-1.86,1,7.49,7.49,0,0,0-1.5,1.58,7.09,7.09,0,0,0-1,1.82,4.85,4.85,0,0,0-.15.74,3.78,3.78,0,0,0,0,1,4.17,4.17,0,0,0,.22,1,2.27,2.27,0,0,0,.57.91,7.89,7.89,0,0,0,2.13,1.54,16.09,16.09,0,0,0,2.28.94,20.77,20.77,0,0,0,2,.54,8.9,8.9,0,0,1,1.23.32,4.16,4.16,0,0,1,.48.22,7.68,7.68,0,0,1,.78.47,5.25,5.25,0,0,1,.71.63.84.84,0,0,1,.26.54c0,2.07-6.76.92-7.94.72-.5-.09-1-.17-1.52-.29A2.83,2.83,0,0,1,175.05,113.63Z"/><path class="cls-1" d="M252.38,114.18a52.82,52.82,0,0,0,3.28-7.59c1.19-3.59,1.79-7.19-.11-8,2.8-.2,6.08,3.66,6.64,1.33,0-1.59-3.42-2.65-4.28-2.8-1.28-.23-4.27-.4-5.6.6l.34.92a11.19,11.19,0,0,1,2.52-.06c-1.48.62-1.25,1.2-1.43,2.4-3.13,21.09-24.39,33.35-44.67,30.35a24.75,24.75,0,0,1-4.91-.94,80.46,80.46,0,0,1-9-2.57c.22-1,1.67-2.69,1-3.43-1.18-1.25-2.33.85-2.7,1.62-1.06,2.27-1,7.47,1.3,5.72,0-.41-.19-.81-.22-1.25l.07-.77,0-.12.1-.24C212.54,138.93,240.55,135.73,252.38,114.18Z"/><path class="cls-2" d="M59.73,107c-1.28,2.15-3.06,5.8-6,5.8a1.86,1.86,0,0,1-2-1.16c3.34-1.17,6.32-7.11,2.76-9-3.25-1.7-5.63,3.92-5.73,6.4a4.46,4.46,0,0,0,0,.73,4.39,4.39,0,0,1-2.6-.26,43.5,43.5,0,0,0,2.11-7.1c.87-3.79,1.73-8.07,1.05-12-.3-1.76-3-1-2.68.74.9,5.19-1,11.79-2.87,16.58-.58,1.45-2.38,6.21-4.49,5-.71-.41-1.37-1.79-1.8-3.35a15.93,15.93,0,0,0,.52-6.9,1.41,1.41,0,0,0-2.33-.62c-1.54,1.56-1.76,4.48-1.12,7.24-.57,1.64-1.8,5.08-3.42,2.87-2.75-3.75-1.78-11.59-.89-15.69.38-1.74-2.3-2.49-2.68-.74a33.35,33.35,0,0,0-.29,13.35c.43,2.26,1.34,6.2,4,6.89,2.06.53,3.66-.8,4.79-2.84,1.71,2.75,4.38,4.1,7.18,1.19a12.84,12.84,0,0,0,1.86-2.55l.72.32a8.15,8.15,0,0,0,3.28.34c.7,2.22,2.39,3.27,4.84,3.31,3.18,0,5.56-3.35,6.82-5.87C62.18,107,60.51,105.56,59.73,107Zm-6.28-2.09c.54.12-.22,1.95-.4,2.25a4.64,4.64,0,0,1-1.26,1.49C52.09,107.2,52.75,105.13,53.45,104.87Z"/></g></g></svg>