<?xml version="1.0" encoding="UTF-8"?>
<!DOCTYPE svg PUBLIC "-//W3C//DTD SVG 1.1//EN" "http://www.w3.org/Graphics/SVG/1.1/DTD/svg11.dtd">
<!-- Creator: CorelDRAW 2021.5 -->
<svg xmlns="http://www.w3.org/2000/svg" xml:space="preserve" width="216.83mm" height="43.3661mm" version="1.1" style="shape-rendering:geometricPrecision; text-rendering:geometricPrecision; image-rendering:optimizeQuality; fill-rule:evenodd; clip-rule:evenodd"
viewBox="0 0 58849.8 11770"
 xmlns:xlink="http://www.w3.org/1999/xlink"
 xmlns:xodm="http://www.corel.com/coreldraw/odm/2003">
 <defs>
  <style type="text/css">
   <![CDATA[
    .fil0 {fill:#FECC00}
   ]]>
  </style>
 </defs>
 <g id="Слой_x0020_1">
  <metadata id="CorelCorpID_0Corel-Layer"/>
  <path class="fil0" d="M15966.4 2809.8c1854.1,-156 2082,1632.4 1797.6,3293.8 -237.2,1385.1 -1017.9,2746.2 -2388.9,2856.7 -1859,149.9 -2104.1,-1608.5 -1796.1,-3283.2 253.5,-1378.3 1006,-2751.2 2387.5,-2867.4zm24411.4 0c1854.1,-156 2082.1,1632.4 1797.6,3293.8 -237.2,1385.1 -1017.9,2746.2 -2388.9,2856.7 -1859,149.9 -2104.1,-1608.5 -1796.1,-3283.2 253.4,-1378.3 1006,-2751.2 2387.5,-2867.4zm-21 -2798.7c-3201.6,161.7 -5355.8,2596.1 -5773,5688.4 -529.4,3924.6 1497.7,6245.5 5258.8,6060.1 3042.4,-150 5137.6,-2395.1 5678.6,-5361.3 712,-3903.6 -1062.3,-6594.2 -5164.5,-6387.1zm-12183 2798.7c1854.1,-156 2082.1,1632.4 1797.6,3293.8 -237.2,1385.1 -1017.9,2746.2 -2389,2856.7 -1859,149.9 -2104,-1608.5 -1796.1,-3283.2 253.4,-1378.3 1006,-2751.2 2387.5,-2867.4zm-21 -2798.7c-3201.6,161.7 -5355.8,2596.1 -5773,5688.4 -529.4,3924.6 1497.7,6245.5 5258.8,6060.1 3042.4,-150 5137.6,-2395.1 5678.6,-5361.3 712,-3903.6 -1062.3,-6594.2 -5164.4,-6387.1zm-28152.8 11483.1l8237.1 7.2c161.9,-825.1 280.7,-1426.8 442.5,-2251.9 41.7,-212.8 -14.2,-626.9 -466.6,-626.9l-4225.6 0 1666.2 -8351.2 -3373.9 -2 -2279.9 11224.8zm45806.5 -0.2l3334 7.6 619 -3004.4c33.8,-166.6 39.3,-210.9 236.1,-385 196.8,-174.1 748.4,-662.1 1016.7,-899.5l1987 4286.7 3792.7 1.8 -3159 -6612.9 5216.7 -4618.7 -3936.9 0 -4229.7 3744.9c214.1,-1039.3 428.3,-2078.7 642.4,-3118 76.2,-369.9 -150.7,-626.9 -435.4,-626.9l-2809.5 0c-758,3741.5 -1516.1,7483 -2274.1,11224.5zm-29861.1 -11482.8c-3201.5,161.7 -5355.8,2596.1 -5773,5688.4 -529.4,3924.6 1497.7,6245.5 5258.8,6060.1 3042.4,-150 5137.6,-2395.1 5678.6,-5361.3 712,-3903.6 -1062.3,-6594.2 -5164.5,-6387.1z"/>
 </g>
</svg>
