<svg xmlns="http://www.w3.org/2000/svg" viewBox="0 0 600 600"><path d="M84.53,242.68v-3.44c1.13-3.45,3.72-5.44,7.76-6a55.52,55.52,0,0,1,13.78,0,40.68,40.68,0,0,0,14.66-.87q-1.74-15.51-9.48-58.61t-6-67.22c3.44-1.13,13.78-3.45,31-6.89s30.44-6.3,39.64-8.62q0-1.69-.85-15.52c-.6-9.18.85-13.78,4.31-13.78q63.75-5.18,86.19-1.73Q269,77.22,269,87.55h58.61c1.13-2.29,1.72-5.74,1.72-10.34a72.69,72.69,0,0,1,.86-12.07c.57-3.44,2-5.74,4.31-6.89q65.49,0,86.19,12.06,0,6.9-2.59,26.72t-.86,28.44q6.87,1.74,25.86,1.73t30.16,2.58q11.19,2.59,18.1,9.48,0,15.53-6,44.82t-7.75,46.54h18.1c9.74,0,16.36,1.16,19.82,3.45Q481,384,429.28,539.17q-129.28,5.16-258.56,0Q153.47,484,123.32,378.86T84.53,242.68Zm98.25,281H415.49q13.77-46.53,39.64-137T493.06,251.3H431q-34.5,81.06-112,87.92-55.18,5.16-93.95-19.83T170.72,251.3H137.1c-16.66,0-26.71.6-30.16,1.73Q151.75,408.16,182.78,523.65ZM194.85,251.3q-3.48-20.67-6-44t-5.16-52.58q-2.58-29.28-4.31-44.81-8.66,1.73-27.58,4.31t-27.59,6q1.69,13.81,5.18,35.33t6,40.51q2.58,19,4.31,36.2,39.63,0,43.09,1.73c1.13,0,2.29,1.72,3.45,5.17s2.29,6.62,3.44,9.48S192.53,252.46,194.85,251.3Zm0-168.92Q213.8,275.46,215.54,287.5q3.42,1.74,12.06,8.62t13.79,10.35a74,74,0,0,0,13.79,6.88,29.52,29.52,0,0,0,17.24,1.73q-5.18-39.63-12.93-118.94T246.56,78.93A190.26,190.26,0,0,0,194.85,82.38Zm75.84,31q0,13.82,1.73,31t4.31,38.79q2.58,21.57,4.31,33.61,8.59,82.74,15.51,101.7h12.07q6.87-67.21,17.24-212H269C269,110,269.53,112.28,270.69,113.41ZM350,78.93a2275.26,2275.26,0,0,0-19,239.6q34.47-10.35,50-27.58,1.71-34.47,9.48-102.56T400,84.1c-3.44,0-10.93-.86-22.4-2.58S356.88,78.93,350,78.93Zm53.44,182.71q0-1.69,5.17-12.92t10.35-14.65c2.28-1.13,14.92-1.73,37.92-1.73q1.69-15.51,6.9-42.23t6.89-40.5q-8.64,0-27.58-2.59t-29.3-2.59q0,19-5.18,58.61T403.42,261.64Z"/></svg>
