<svg xmlns="http://www.w3.org/2000/svg" viewBox="0 0 600 600"><defs><style>.a{fill:none;stroke:#000;stroke-linejoin:round;stroke-width:18px;}.b{fill-rule:evenodd;}</style></defs><title>bag</title><polygon class="a" points="448.84 187.94 151.38 187.49 141.86 523.62 458.14 523.62 448.84 187.94"/><path class="a" d="M381,187.83C381,91.47,361,76,300,76s-81,15.46-81,111.82"/><path class="b" d="M360.52,396.17a79.67,79.67,0,0,1-8.08,8.57A77.84,77.84,0,0,1,230.58,312,34.91,34.91,0,0,1,244,318.47a33.8,33.8,0,0,1,9.6,11.92c3.54,7.34,3,11.27,3.23,18.61a44.06,44.06,0,0,0,1.36,9.32,40.1,40.1,0,0,0,4,9.88,43.6,43.6,0,0,0,10.67,12.69,42.9,42.9,0,0,0,14.67,7.7,43.1,43.1,0,0,0,53.86-28.91,41.18,41.18,0,0,0,1.79-10.83c0-1.06,0-2.12,0-3.18s-.11-2.07-.22-3.11a43.27,43.27,0,0,0-15.8-29,43.83,43.83,0,0,0-14.68-7.74,42.58,42.58,0,0,0-25.26.13c-12.19,3.92-20.61,6.18-33.08-1.61a34.82,34.82,0,0,1-10.68-10.42,78.38,78.38,0,0,1,17.8-14.17,77.72,77.72,0,0,1,116.09,59.1,44.08,44.08,0,0,1,.39,5.5c0,.94.06,1.88.06,2.81C377.83,363.11,371.71,379.9,360.52,396.17Z"/></svg>