<svg xmlns="http://www.w3.org/2000/svg" viewBox="0 0 600 600">
  <path d="M533.57,389.26v8.62q0,29.33-.86,43.95t-10.34,31q-9.5,16.41-28.45,18.1h-293q-8.64,0-25,.86a182.52,182.52,0,0,1-25.85,0q-9.49-.84-23.27-.86t-22.41-2.58a106.17,106.17,0,0,1-17.24-6.9,34.93,34.93,0,0,1-13.79-12.06,45.6,45.6,0,0,1-6.89-18.1q-1.74-8.61.86-30.17T66.44,391c0-3.44-2.88-8-8.62-13.78S48.61,365.72,47.48,360q-3.48-20.68,19-46.54V278.94c-1.16-4.57-4.6-7.75-10.35-9.48s-8.61-4.31-8.61-7.75q-1.74-8.61,7.75-19.82c6.31-7.47,10.05-12.34,11.21-14.66q3.44-44.79,31-78.43T171.59,110q1.69-3.43,63.77-1.73T299.14,110H425q68.94,6.9,96.54,72.39,3.42,6.92,6,21.55t4.32,21.55c1.13,1.16,5.17,6.62,12.06,16.38s9.75,17.23,8.62,22.4-8,9.48-20.68,12.93c0,4.61-.3,10.34-.87,17.24s-.29,12.06.87,15.51q1.7,8.64,10.34,18.1T552.53,341Q556,360,533.57,389.26Zm-90.5-16.37c10.91.59,20.4.86,28.45.86s16.94-.27,26.71-.86,17.51-2,23.28-4.32,9.18-5.16,10.34-8.61q3.43-12-1.73-19T512,332.38a196.78,196.78,0,0,0-25.85-1.72q-12.93,0-31.89.86c-12.66.59-21.85.86-27.58.86H194q-8.64,0-36.19-1.72t-50-1.73q-22.43,0-31,3.45-20.68,10.33-8.61,31Q75,372.05,181.93,372H421.52C425,372,432.14,372.32,443.07,372.89ZM71.61,254.81q27.56,15.51,67.23-6.9,20.68,17.27,50.85,16.38t50.85-16.38q24.11,19,60.32,19t60.34-19q18.94,17.27,50.85,17.24t50.85-17.24q34.46,25.86,65.5,6.9-3.46-15.51-39.64-15.51H82Q71.62,249.64,71.61,254.81ZM511.16,445.28a178,178,0,0,0,.86-31c-.59-12.07-.86-19.83-.86-23.28h-424c-2.31,0-3.44,1.73-3.44,5.18v24.13q0,20.68,2.58,31t9.48,15.51q8.61,6.92,98.25,6.89h210.3q87.91,0,98.26-8.61C507.13,460.53,510,453.9,511.16,445.28ZM85.4,220.34H511.16Q497.35,137.6,426.7,129H299.14q-15.51,0-43.09-.86t-48.26-.87A289.62,289.62,0,0,0,173.31,129Q100.91,137.62,85.4,220.34Zm377.5,50q-19,15.51-51.71,15.52t-51.72-15.52q-24.15,19-61.19,18.1t-61.19-18.1q-17.25,15.51-50.85,15.52t-52.57-15.52A87.26,87.26,0,0,1,85.4,280.66v31H511.16v-31Q493.91,282.41,462.9,270.32ZM175,179q-17.24,1.75-18.95-13.78c0-6.9,4.57-11.48,13.79-13.79q12-5.17,15.51,5.17Q195.72,177.25,175,179ZM187.1,191q3.43-13.77,20.69-8.62,18.94,6.92,5.16,24.14-22.41,8.64-25.85-8.62Zm24.13-45.68q8.61-9.45,22.41-2.58a17.31,17.31,0,0,1,3.45,14.65q-1.74,7.76-9.48,11.21t-16.38-3.45Q202.59,154.83,211.23,145.35Z"/>
</svg>
