<svg xmlns="http://www.w3.org/2000/svg" viewBox="0 0 600 600"><defs><style>.a,.b{fill:none;stroke:#000;stroke-miterlimit:10;stroke-width:18px;}.b{stroke-linecap:round;}</style></defs><path class="a" d="M402.18,537.74c-32.87.64-65.7-8.2-92.62-28.46-24.1-18.12-41.46-43.62-53.45-71-20-45.63-29.71-93.91-43.41-141.19-2.51-8.68-5.58-16.75-11.82-23.69s-10.51-14.65-6-24.44a9.19,9.19,0,0,0,.69-4.94c-1.83-12.05-33.89-38.48-46.28-38.34-16.47.18-33.06,2.68-48.16-7.72a63.19,63.19,0,0,1-22.56-27c-10-22.61-1.75-41.5,21.29-50.12a62.55,62.55,0,0,1,17.31-4.18c9.63-.68,14.61-5.55,16.75-14.52a110.2,110.2,0,0,1,4-12.12q8.85-24.26,30.49-24.77c15.76-.39,29.48,9,35.38,24.5,7.36,19.3,7.14,39.05,3.62,59.09-2.91,16.54,13.79,48.07,28.71,55.44,2.18,1.07,3.83,1.24,5.8-.22,8.71-6.46,14.79-2.63,20.3,4.92C269.51,219,280,224.28,291.59,228.1c36.34,12,73.5,21.24,109,35.9,66.81,27.56,109.3,74.86,122.87,146.59,10.9,57.58-14.82,100.77-70.52,118.63A178.65,178.65,0,0,1,402.18,537.74Z"/><path class="b" d="M195.27,247.72c11.91-38,44.13-42.43,44.13-42.43"/><path class="b" d="M299.11,430.25s33.1,67.1,126,65.46"/><path d="M291.86,393.61q2.13,13.84-9.57,14.9-9.59,1.07-12.78-9.05t6.39-14.37Q290.79,379.78,291.86,393.61Z"/></svg>
