<svg xmlns="http://www.w3.org/2000/svg" viewBox="0 0 600 600"><defs><style>.a,.b{fill:none;stroke:#000;stroke-width:18px;}.a{stroke-miterlimit:10;}.b{stroke-linejoin:round;}</style></defs><path class="a" d="M225.77,186.14c-19.9,9.83-39.55,20.19-59.18,30.55L93.84,255.08c-17.32,9.14-15.59,36.74-9.83,53.28h0c.71,1.86,20.79-1.79,22.47-2q108.44-14.13,217.19-25.51c19.3-2,40.47-5.7,61.47-8.44A371.84,371.84,0,0,1,426.34,269h0c3.12-.05,6.2,0,9.23.05,23.5.69,43.2,14.58,46.27,39.71,0,.41.09.81.13,1.23,2,20.43,2.14,21.29-17.72,24-1.53.22-3.06.42-4.59.62C432.5,338.21,377.82,344.84,318,352l-.38,0c-70.15,8.34-147.3,17.31-195.43,22.83l-.13,0L93.65,378.1l-4.06.46c-1.81,27.21,6.38,82.86,7.15,83.77,8.11-.85,38.69-5.08,76-10.37h.05c48.77-6.92,109.08-15.65,145.9-21q5.78-.85,11.55-1.69l2-.3,6.76-1q59.37-8.74,118.63-18.27C474.26,407,476.5,408,474.73,425c-1.81,17.27-5,34.4-7.56,51.59,19.79-3.62,34.45-2.49,38.84-25.07,13.91-71.61,35.32-181.34-38.25-227.95-41.93-26.57-95.92-61.13-146-68-1.18-.16-2.38-.3-3.57-.38a67.83,67.83,0,0,0-13.66.36l-1.9.25a111,111,0,0,0-19.83,5"/><path class="a" d="M84,308.36c10.3.08,328.08-42.65,351.57-39.36s44,16.33,46.41,40.93c2,20.44,2.14,21.3-17.72,24C350.43,349.55,236,360.2,122.07,374.84c-10.81,1.4-21.65,2.49-32.48,3.72Z"/><path class="a" d="M96.73,462.33c31.52-2.06,62.41-8.61,93.6-13.08,49.57-7.1,99.16-14,148.71-21.3q59.37-8.74,118.63-18.27C474.25,407,476.5,408,474.73,425c-1.81,17.28-5,34.41-7.56,51.6-33.31,7.67-67.34,11.24-100.89,17.42-82,15.13-164.85,24.75-247.29,37-15.9,2.37-21.1-1.54-21.48-17.38C97.1,496.5,97,479.42,96.73,462.33Z"/><path class="b" d="M327.64,51.84c-5.93-3.12-18.83-2.62-26.79,4.18,41.45,40.29,2.33,101.86-3.16,107.75C332.8,124,344.39,88.55,327.64,51.84Z"/><path class="a" d="M271.87,171.73a170.4,170.4,0,0,0,16.95-4.1c-8.7-11.42-19.75-19.67-35-16-12.42,2.95-22.43,12.82-26.17,24.92-7.87,25.46,8.63,52.57,33.54,60,22.08,6.55,50.63,1.42,64.73-18.18,7.24-10.07,8.32-18.81,4-30.2C325,175,314.05,170,300.14,171c-9.52.71-18.2,4-27.84,4.12C270.38,175.17,269.91,172,271.87,171.73Z"/></svg>
