<svg xmlns="http://www.w3.org/2000/svg" viewBox="0 0 600 600"><path d="M360.38,135.49q36.19,8.65,59.47,53.43t-11.21,74.13q27.56,24.17,19,55.16-1.74,1.73-6,6.89a114.17,114.17,0,0,0-7.75,10.35l-5.18,3.44c0,2.32,3.16,6.89,9.49,13.79s10,12.07,11.2,15.52q3.44,17.25-8.62,36.19l-12.07,12.07c0,1.16,3.16,5.77,9.49,13.79s10,13.22,11.2,15.51q15.51,86.22-44.82,96.53H248.33c-5.76,0-12.92-.27-21.54-.86a140.71,140.71,0,0,1-20.68-2.59,69.59,69.59,0,0,1-16.38-6,30.7,30.7,0,0,1-12.93-11.2,46.24,46.24,0,0,1-6-17.24q-12.08-65.49,20.68-86.19a37.2,37.2,0,0,0-6.9-8.61,59.55,59.55,0,0,1-6.89-7.76c-1.15-1.73-2.88-4.58-5.16-8.62s-3.19-7.46-2.59-10.34a86.68,86.68,0,0,0,.86-14.65q1.69-5.18,11.2-15.52c6.3-6.9,9.48-10.9,9.48-12.06s-3.18-5.17-9.48-12.07-10.07-12.64-11.2-17.24q-3.48-24.12,20.68-48.26-32.76-31-12.06-75t60.33-50.85V117.39a175.31,175.31,0,0,1,.86-18.1c.56-5.73,1.13-10.91,1.73-15.51a24.31,24.31,0,0,1,6-12.93,23.33,23.33,0,0,1,12.08-7.76q22.36-8.6,77.55-3.44c9.19,3.44,15.52,9.21,19,17.24s4.58,17,3.45,26.71A146.32,146.32,0,0,0,360.38,135.49ZM400,433.7a73.69,73.69,0,0,0-19-6,15.29,15.29,0,0,1-8.62-4.3c-2.31-2.3-3.44-4.58-3.44-6.9s1.43-4,4.31-5.17a46.48,46.48,0,0,1,11.2-2.58,33.5,33.5,0,0,0,10.34-2.59q12-6.87,13.79-25t-10.34-25A40.11,40.11,0,0,0,387.09,351a39.57,39.57,0,0,0-10.34-1.73,9.3,9.3,0,0,1-6.89-2.58c-1.72-1.73-2-4.31-.86-7.76s6.29-6.3,15.51-8.62,14.35-4,15.52-5.17q12-10.34,9.48-26.72t-14.66-21.54c-1.15-1.13-5.47-2.29-12.92-3.45s-11.8-3.45-12.93-6.89c0-4.58,2.28-8,6.89-10.35A61.93,61.93,0,0,1,391.41,251c5.73-1.13,9.17-2.29,10.34-3.44q12-17.22,4.3-39.65t-21.54-34.48q-25.86-25.84-87.91-25.85t-87.91,29.3q-13.83,15.51-19,37.93T201.8,251q3.42,1.74,10.33,2.59a48.29,48.29,0,0,1,11.21,2.58c2.86,1.16,4.31,4,4.31,8.62,0,3.45-2,6-6,7.75a76.72,76.72,0,0,1-13.79,4.32,53.82,53.82,0,0,0-11.21,3.45,32.38,32.38,0,0,0-9.48,21.54c-.59,8.62,2.59,15.81,9.48,21.55q3.45,3.47,11.21,5.17a79.23,79.23,0,0,1,13.79,4.31c4,1.72,6,3.74,6,6,0,4.61-1.45,7.49-4.31,8.62A76.19,76.19,0,0,1,210.41,351a26.22,26.22,0,0,0-13.79,6.89q-10.34,8.65-7.75,25c1.73,10.93,6.59,18.69,14.65,23.27,6.89,3.45,13.19,5.17,19,5.17,3.45,0,5.17,2.31,5.17,6.89s-5.47,8.92-16.38,12.93-17,7.19-18.09,9.48q-5.18,6.92-5.17,31t1.72,29.3a25.51,25.51,0,0,0,8.61,14.65q6.89,6.06,19.83,7.76a170.89,170.89,0,0,0,22.41,1.73c6.3,0,15.78-.27,28.44-.87s22.41-.86,29.3-.86,17.24.3,31,.86,23.54.87,29.3.87a167,167,0,0,0,21.56-1.73c8.61-1.13,14.91-3.45,19-6.9a34.76,34.76,0,0,0,9.48-13.79c0-4.58.27-12.33.87-23.26a140.51,140.51,0,0,0-.87-27.59Q406.9,440.61,400,433.7ZM262.13,83.78q-1.75,6.9-2.59,23.27c-.59,10.93-.86,18.1-.86,21.55h81v-25c0-12.06-.59-18.66-1.73-19.82q-13.8-3.44-37.92-3.45T262.13,83.78Z"/></svg>
