<svg xmlns="http://www.w3.org/2000/svg" viewBox="0 0 600 600"><path d="M57.82,542.12q-1.74-10.35,17.25-62.05Q163,274.95,200.89,180.13q3.44-6.87,12.07-27.58t13.79-32.75a66.64,66.64,0,0,1,1.73-9.48,78.55,78.55,0,0,1,3.44-12.06c1.13-2.86,2.59-6.61,4.31-11.21s3.15-8.61,4.3-12.06a29.92,29.92,0,0,1,5.18-9.49,21.82,21.82,0,0,1,6.89-6,15.5,15.5,0,0,1,6.9-1.72q93.09,15.51,182.72,101.7,46.53,46.53,84.46,131,17.21,50,15.51,55.16-1.73,6.92-60.33,27.58Q440.49,387,178.49,495.58q-41.38,17.25-60.34,24.13Q75,543.86,57.82,542.12ZM233.64,152.55,213,204.26q60.31,0,65.5,50,5.18,44.83-36.2,61.18t-68.95-18.09q-5.16,10.33-16.38,38.78t-18.09,42.23q27.56,0,37.92,20.68t-2.58,40.51q-12.93,19.84-40.51,16.38c-3.45,0-7.49-1.73-12.07-5.17s-8.62-5.17-12.07-5.17q-3.47,10.34-13.79,34.48T83.68,516.26q15.51-6.86,70.67-28.44t82.74-37.06q-20.68-12-24.13-24.13-17.25-44.81,27.57-60.34,39.63-13.77,58.61,15.52,12,17.25,3.46,43.09,20.68-8.59,68.94-28.44t75.84-30.17Q390.52,209.47,233.64,152.55ZM161.25,412.84q-3.48-17.22-22.41-12.93t-15.52,26.72q10.35,15.51,25.86,8.61T161.25,412.84Zm68.95-112q34.45-6.85,29.3-43.09-5.17-34.45-34.48-36.2a45.91,45.91,0,0,0-20.69,5.17q-12.06,19-20.68,48.27Q197.44,306,230.2,300.79Zm0,108.6q0,19,15.51,25.85t30.17-1.72q14.63-8.61,14.64-27.58-3.45-32.71-39.64-24.13Q226.72,387,230.2,409.39Zm31-334.4q-17.25,48.27-19,60.32Q406,195.67,464.62,357.68q17.22-3.44,58.61-19Q457.71,138.79,261.22,75Z"/></svg>
