<svg xmlns="http://www.w3.org/2000/svg" viewBox="0 0 600 600">
  <path d="M179.3,97.18q34.47-32.73,80.18-40.52a271.19,271.19,0,0,1,91.39,0q45.66,7.77,77.59,43.11t31.9,88.8V192a1876.64,1876.64,0,0,1-25.87,244.84q-6.9,62.08-13.79,74.15-19,36.21-119,36.21-84.5-3.44-96.55-8.62a40.84,40.84,0,0,1-15.52-11.21,83.17,83.17,0,0,1-10.35-13.8c-2.32-4-4.31-10.34-6-19s-2.89-15.22-3.45-19.83-1.46-12.07-2.59-22.42-1.72-17.81-1.72-22.41q-13.83-89.64-20.69-165.53-5.17-86.2-5.18-87.94Q144.82,129.94,179.3,97.18Zm31,420.73a80.58,80.58,0,0,0,18.1,6.89c5.18,1.16,13.2,2,24.14,2.59s18.67.86,23.28.86q-38-43.08-38.8-137.94t35.35-146.56q-15.51-8.61-56-21.56t-57.76-25Q162,250.65,182.75,430c1.13,4.6,2.59,16.38,4.31,35.35s4.31,31.89,7.76,38.79C198.27,509.88,203.44,514.46,210.34,517.91ZM167.23,147.19q-6.91,20.69,10.35,37.93,31-53.43,91.38-62.07-6.9-8.61-3.45-20.69,37.92-12,81.05,24.14,48.24-8.61,72.41,43.1,13.78-22.38,4.32-41.38a77.82,77.82,0,0,0-28.46-31Q358.64,67.89,293.1,71.32t-100,37.93Q174.1,126.52,167.23,147.19ZM274.14,161V143.74q-53.47,1.74-77.6,51.73,65.52,19,89.67,32.76,12-13.78,31-21.56t45.7-13.79q26.7-6,38.79-11.21-10.35-36.21-43.1-37.93a18.4,18.4,0,0,0,3.44,10.34c2.29,3.45,2.86,7.49,1.73,12.07-6.9,4.61-10.94,6.9-12.07,6.9-1.16-1.13-5.77-7.76-13.8-19.83s-15.51-20.39-22.41-25-16.11-6.9-27.59-6.9a51,51,0,0,0,1.72,8.62q1.71,6.92,2.59,10.35A104.16,104.16,0,0,1,294,152.36c.56,5.77.56,9.48,0,11.21a51.59,51.59,0,0,0-1.73,8.62q-.89,6.06-5.17,5.17a60.6,60.6,0,0,0-11.21-.86C274.7,175.37,274.14,170.19,274.14,161Zm160.35,19Q419,198.94,369,209.26T303.45,233.4q-20.7,19-34.49,69-22.42,60.38-11.2,131.05t54.31,94.83q10.35-1.69,30.17-1.72t33.63-2.59q13.78-2.58,20.69-11.21,8.61-8.61,17.24-82.76Q444.84,248.92,434.49,180ZM336.21,305.82q3.44,22.43-15.52,24.14Q305.18,331.7,300,315.3T310.35,292Q334.47,283.42,336.21,305.82Zm22.42,51.73c1.13,3.45,1.13,5.76,0,6.89q-3.48,12.09-17.25,0-10.33-8.6,5.18-13.79Q356.9,347.22,358.63,357.55Z"/>
</svg>
